# xmcd
#
# Track frame offsets:
#	182
#	14827
#	33200
#	47267
#	62065
#	73535
#	85382
#	102277
#	113092
#	121862
#	137690
#	151997
#	175627
#	195810
#	206305
#	218595
#	235417
#	248657
#
# Disc length: 3461 seconds
#
# Revision: 0
# Processed by: cddbd v1.4PL0 Copyright (c) Steve Scherf et al.
# Submitted via: audiograbber 1.80
#
DISCID=e30d8312
DTITLE=Various Artist - Dvorana slavy
DYEAR=1900
DGENRE=
TTITLE0=Michal Tucny a Tucnaci - Posledni kovboj
TTITLE1=Bavel Bobek - Lasko, mne ubyva sil
TTITLE2=Vera Martinova - Maly dum nad skalou
TTITLE3=Petr Spaleny - Kolej Albertov
TTITLE4=Nada Urbankova - O ty to nepochopis (Girl On The Billboard)
TTITLE5=Karel Kahovec - Nejkrasnejsi divce (The Most Beautiful Girl)
TTITLE6=Poutnici - Az uslysim hvizdani
TTITLE7=Fesaci - Hej, chlapce s tamburinou (Mr. Tambourine Man)
TTITLE8=Josef Simek a Greenhorns - Abilene
TTITLE9=Jiri Grossmann - Blizzard (The Blizzard)
TTITLE10=Nada Urbankova - Rodicovské sdruzeni (Harper Valley P.T.A)
TTITLE11=Mirek Cerny - Zatim co ty spis
TTITLE12=Petr Spaleny - Chlap ze stranky 5
TTITLE13=Poutnici - Panenka
TTITLE14=Jan Vycital a Zelenaci - To tenkrat v ctyricatom patom
TTITLE15=Vera Martinova - Toulavy dziny
TTITLE16=Pavel Bobek - Country boy (Lord Have Mercy On A Country Boy)
TTITLE17=Michal Tucny a Tucnaci - Cesty toulavy (On The Road Again)
EXTD=
EXTT0=
EXTT1=
EXTT2=
EXTT3=
EXTT4=
EXTT5=
EXTT6=
EXTT7=
EXTT8=
EXTT9=
EXTT10=
EXTT11=
EXTT12=
EXTT13=
EXTT14=
EXTT15=
EXTT16=
EXTT17=
PLAYORDER=
